<svg width="128" height="128" viewBox="0 0 128 128" fill="none" xmlns="http://www.w3.org/2000/svg">
<path d="M63.9925 51.7014C70.7856 51.7014 76.2922 57.2082 76.2923 64.0012C76.2923 70.7943 70.7856 76.3011 63.9925 76.3011C57.1995 76.3009 51.6927 70.7943 51.6927 64.0012C51.6928 57.2083 57.1996 51.7015 63.9925 51.7014Z" fill="url(#paint0_linear_1_8)" stroke="white"/>
<path d="M64 0.5C99.0134 0.500017 127.5 28.9866 127.5 64C127.5 98.8466 99.2842 127.226 64.5 127.496V102.894C85.7194 102.625 102.9 85.2836 102.9 64C102.9 42.5495 85.4505 25.0996 64 25.0996C42.7164 25.0996 25.3741 42.279 25.1055 63.5H0.50293C0.772583 28.7158 29.1534 0.5 64 0.5Z" fill="url(#paint1_linear_1_8)" stroke="white"/>
<path d="M34 126.626L23.9434 104.305L23.8662 104.132L23.6934 104.054L1.37012 93.9971L50.4072 77.5899L34 126.626Z" fill="url(#paint2_linear_1_8)" stroke="white"/>
<defs>
<linearGradient id="paint0_linear_1_8" x1="63.9927" y1="51.2014" x2="63.9927" y2="76.8014" gradientUnits="userSpaceOnUse">
<stop stop-color="#61DAFB"/>
<stop offset="1" stop-color="#2D8CF0"/>
</linearGradient>
<linearGradient id="paint1_linear_1_8" x1="64" y1="0" x2="64" y2="128" gradientUnits="userSpaceOnUse">
<stop stop-color="#61DAFB"/>
<stop offset="1" stop-color="#2D8CF0"/>
</linearGradient>
<linearGradient id="paint2_linear_1_8" x1="25.6" y1="76.7979" x2="25.6" y2="127.998" gradientUnits="userSpaceOnUse">
<stop stop-color="#61DAFB"/>
<stop offset="1" stop-color="#2D8CF0"/>
</linearGradient>
</defs>
</svg>
